HIERARCHY
ROOT root
{
	OFFSET 0.000000 0.000000 0.000000
	CHANNELS 6 Xposition Yposition Zposition Zrotation Yrotation Xrotation
	JOINT lhip
	{
		OFFSET 0.058581 -0.082280 -0.017664
		CHANNELS 3 Zrotation Yrotation Xrotation
		JOINT lknee
		{
			OFFSET 0.043451 -0.386469 0.008037
			CHANNELS 3 Zrotation Yrotation Xrotation
			JOINT lankle
			{
				OFFSET -0.014790 -0.426874 -0.037428
				CHANNELS 3 Zrotation Yrotation Xrotation
				JOINT ltoe
				{
					OFFSET 0.041054 -0.060286 0.122042
					CHANNELS 3 Zrotation Yrotation Xrotation
					End Site
					{
						OFFSET 0.000000 0.000000 0.000000
					}
				}
			}
		}
	}
	JOINT rhip
	{
		OFFSET -0.060310 -0.090513 -0.013543
		CHANNELS 3 Zrotation Yrotation Xrotation
		JOINT rknee
		{
			OFFSET -0.043257 -0.383688 -0.004843
			CHANNELS 3 Zrotation Yrotation Xrotation
			JOINT rankle
			{
				OFFSET 0.019056 -0.420046 -0.034562
				CHANNELS 3 Zrotation Yrotation Xrotation
				JOINT rtoe
				{
					OFFSET -0.034840 -0.062106 0.130323
					CHANNELS 3 Zrotation Yrotation Xrotation
					End Site
					{
						OFFSET 0.000000 0.000000 0.000000
					}
				}
			}
		}
	}
	JOINT lowerback
	{
		OFFSET 0.004439 0.124404 -0.038385
		CHANNELS 3 Zrotation Yrotation Xrotation
		JOINT upperback
		{
			OFFSET 0.004488 0.137956 0.026820
			CHANNELS 3 Zrotation Yrotation Xrotation
			JOINT chest
			{
				OFFSET -0.002265 0.056032 0.002855
				CHANNELS 3 Zrotation Yrotation Xrotation
				JOINT lowerneck
				{
					OFFSET -0.013390 0.211636 -0.033468
					CHANNELS 3 Zrotation Yrotation Xrotation
					JOINT upperneck
					{
						OFFSET 0.010113 0.088937 0.050410
						CHANNELS 3 Zrotation Yrotation Xrotation
						End Site
						{
							OFFSET 0.000000 0.000000 0.000000
						}
					}
				}
				JOINT lclavicle
				{
					OFFSET 0.071702 0.114000 -0.018898
					CHANNELS 3 Zrotation Yrotation Xrotation
					JOINT lshoulder
					{
						OFFSET 0.122921 0.045205 -0.019046
						CHANNELS 3 Zrotation Yrotation Xrotation
						JOINT lelbow
						{
							OFFSET 0.255332 -0.015649 -0.022946
							CHANNELS 3 Zrotation Yrotation Xrotation
							JOINT lwrist
							{
								OFFSET 0.265709 0.012698 -0.007375
								CHANNELS 3 Zrotation Yrotation Xrotation
								End Site
								{
									OFFSET 0.000000 0.000000 0.000000
								}
							}
						}
					}
				}
				JOINT rclavicle
				{
					OFFSET -0.082954 0.112472 -0.023707
					CHANNELS 3 Zrotation Yrotation Xrotation
					JOINT rshoulder
					{
						OFFSET -0.113228 0.046853 -0.008472
						CHANNELS 3 Zrotation Yrotation Xrotation
						JOINT relbow
						{
							OFFSET -0.260127 -0.014369 -0.031269
							CHANNELS 3 Zrotation Yrotation Xrotation
							JOINT rwrist
							{
								OFFSET -0.269108 0.006794 -0.006027
								CHANNELS 3 Zrotation Yrotation Xrotation
								End Site
								{
									OFFSET 0.000000 0.000000 0.000000
								}
							}
						}
					}
				}
			}
		}
	}
}
MOTION
Frames: 15
Frame Time: 0.033333
-0.108436 0.885991 0.942020 0.164214 -0.387901 90.986342 11.604392 -1.619990 -24.740005 -8.373012 -8.013690 27.186673 -1.862681 2.405292 -9.611701 0.000000 -0.000000 0.000000 -10.937324 -4.849346 -23.919326 1.865529 -1.328985 36.599127 1.900362 -0.409437 -17.564537 0.000000 -0.000000 0.000000 4.091069 1.168013 29.179117 -0.841343 0.104609 -0.475379 3.076561 3.396273 -4.348437 -12.205786 31.996081 -13.156530 -1.518913 31.217907 0.560637 -29.511053 -28.518234 6.337813 -65.763209 -14.959330 26.769482 -2.878807 -36.325375 -12.715134 25.092491 10.661334 -47.961959 29.080374 28.075881 12.856011 48.265901 26.075205 16.034776 5.498858 26.047988 -17.980070 -5.792179 -3.340184 -36.520729 
-0.106378 0.884801 0.942568 -0.842844 -0.203998 90.983879 11.318183 -0.564724 -24.479822 -7.680555 -7.811284 27.493275 -2.563690 1.665386 -9.699910 0.000000 -0.000000 0.000000 -10.684175 -4.464292 -23.946187 1.597992 -0.980538 36.364625 1.934300 0.043367 -17.485678 0.000000 -0.000000 0.000000 4.193421 0.301406 29.033430 -0.778138 -1.179875 1.109312 2.943071 3.137129 -5.998106 -13.454787 32.430871 -11.529199 -1.688184 33.570024 -1.800458 -29.716064 -30.387453 6.148929 -64.877524 -14.082638 27.040853 -3.472914 -35.453869 -6.270819 25.431660 8.822837 -43.253597 27.805123 26.924766 12.677285 48.733032 20.738827 13.684965 3.910775 33.248508 -20.701020 -9.479410 -5.316643 -44.664862 
-0.103114 0.883263 0.943569 -2.355019 -0.153652 91.020002 11.011573 0.339004 -24.067925 -6.976927 -7.133363 27.688303 -3.018299 1.125466 -9.973372 0.000000 -0.000000 0.000000 -10.668390 -3.895458 -24.084380 1.059512 -0.968871 36.111872 2.349619 1.275629 -17.226936 0.000000 -0.000000 0.000000 4.117200 -0.156084 29.058152 -0.662472 -2.053696 1.484610 2.653521 2.803608 -6.292783 -13.965625 34.621344 -10.463676 -2.688209 33.939140 -3.222122 -28.972089 -31.664199 5.624448 -64.032320 -14.654482 27.357104 -3.484980 -35.301283 1.218296 22.769556 4.264095 -36.835341 26.736122 25.160653 12.420815 50.298114 17.126560 12.690138 -0.587131 40.430908 -24.037911 -12.703903 -5.615799 -52.356327 
-0.098483 0.881378 0.944385 -3.834415 -0.068413 91.275877 10.744749 0.926194 -23.950230 -6.030494 -5.888642 27.961656 -3.330740 0.213445 -10.358265 0.000000 -0.000000 0.000000 -10.894077 -3.445042 -24.409849 0.556664 -1.456714 35.796423 2.875871 3.005229 -16.852060 0.000000 -0.000000 0.000000 4.217783 -0.347739 28.559241 -0.269464 -3.030476 2.056459 2.150627 2.534991 -6.498443 -14.030986 37.502892 -9.392102 -3.932972 33.502396 -4.004029 -27.772493 -32.802196 4.963202 -63.635910 -16.261762 27.388221 -2.561701 -35.174711 8.553944 18.773289 -2.469749 -28.226005 26.100171 23.126748 12.392508 52.153682 14.407061 12.001071 -7.817586 47.794938 -27.108227 -14.489724 -3.551938 -57.985895 
-0.092143 0.879002 0.944759 -4.880898 0.080898 91.801795 10.474007 0.953907 -24.369718 -4.926592 -4.361574 28.468706 -3.374899 -0.881471 -10.839714 0.000000 -0.000000 0.000000 -11.315305 -3.444956 -24.834946 0.190842 -2.289584 35.417872 3.501311 4.943364 -16.358510 0.000000 -0.000000 0.000000 4.846922 -0.357571 27.404793 0.314477 -4.480250 3.006172 1.533764 2.135915 -6.694006 -14.115337 40.593102 -8.336129 -5.344641 32.939301 -4.505825 -26.146831 -33.949083 4.109579 -63.563529 -18.428398 27.120303 -0.888736 -36.332934 13.714827 14.102373 -9.023497 -19.634016 25.643024 21.179881 12.341122 53.944746 12.573251 11.477236 -18.492345 55.137238 -32.656299 -16.460810 -0.772957 -61.416811 
-0.087891 0.877118 0.945670 -6.668943 0.108610 91.998507 10.416222 1.475863 -24.032954 -4.289571 -2.905897 28.484574 -3.571279 -1.527942 -11.169984 0.000000 -0.000000 0.000000 -11.503451 -2.707421 -25.371811 -0.287517 -2.615429 35.326191 4.071743 6.444714 -15.932774 0.000000 -0.000000 0.000000 4.097210 -0.088004 27.159139 1.159706 -5.089496 3.403204 1.580852 2.040245 -6.694830 -14.037218 43.866975 -7.498679 -6.583392 32.224028 -4.541596 -23.779757 -34.641739 2.805859 -63.681012 -21.349471 27.345783 0.331157 -39.305590 16.548263 12.173650 -13.263136 -14.298340 25.412632 19.155972 11.744834 55.295224 11.623044 11.687983 -33.391587 61.527608 -42.473690 -19.008550 2.030578 -62.963318 
-0.084587 0.875848 0.946141 -8.506131 0.091387 92.320469 10.540840 1.870615 -23.781078 -4.020036 -1.534267 28.340762 -3.630835 -1.765009 -11.418100 0.000000 -0.000000 0.000000 -11.566991 -1.801741 -26.311287 -0.647685 -2.567769 35.492945 4.573340 7.325434 -15.616310 0.000000 -0.000000 0.000000 2.863410 0.439975 26.861154 2.255064 -5.491257 3.472520 1.908177 1.961544 -6.305087 -13.706648 47.151247 -6.696089 -7.678873 31.452270 -4.200144 -20.803580 -34.921308 1.120512 -63.843211 -25.161831 28.007297 0.558086 -43.337150 18.743749 12.543282 -16.031639 -12.655871 25.122485 17.133173 10.941518 55.468832 11.900609 12.363840 -52.075397 66.015208 -55.486165 -21.757188 4.401528 -63.297627 
-0.082225 0.875061 0.946327 -10.275790 0.028439 92.650105 10.688965 2.130645 -23.582510 -3.858535 -0.300253 28.185893 -3.687854 -1.703325 -11.617925 0.000000 -0.000000 0.000000 -11.624120 -0.916493 -27.317867 -0.863083 -2.410943 35.740855 5.068938 7.902305 -15.353345 0.000000 -0.000000 0.000000 1.540072 1.019053 26.650825 3.270364 -5.803453 3.342297 2.290443 1.937470 -5.894992 -13.031804 50.248434 -5.696602 -8.373438 30.672324 -3.407626 -17.587856 -35.470690 -0.520502 -63.518897 -29.147559 28.637156 1.040257 -47.773054 20.184928 13.414345 -18.495736 -11.439780 24.529320 15.864847 10.085692 54.397747 12.643428 13.003489 -73.110123 68.191432 -71.227909 -24.225928 5.916829 -62.516655 
-0.081038 0.874712 0.946375 -11.824984 0.020949 92.802493 10.862842 2.293327 -23.334532 -3.717838 0.561939 28.142970 -3.803110 -1.336592 -11.807029 0.000000 -0.000000 0.000000 -11.572507 -0.227832 -28.081611 -0.909032 -2.129802 35.963035 5.475663 8.345050 -15.162013 0.000000 -0.000000 0.000000 0.532659 1.419443 26.726298 3.936834 -6.029908 3.101693 2.657392 1.974293 -5.555040 -12.254018 52.442371 -4.410745 -8.857941 30.252830 -2.998731 -14.559781 -36.359325 -2.290874 -62.599967 -33.033999 29.027674 1.986239 -51.928838 20.322767 14.293415 -19.607825 -10.752613 23.364364 15.288096 9.070950 52.082707 13.566375 13.214074 -93.102187 68.439562 -87.037098 -27.135139 6.165162 -61.198632 
-0.081537 0.874953 0.946200 -12.976832 0.053219 92.794272 11.107783 2.403753 -23.061901 -3.681290 1.016543 28.145562 -3.879294 -0.816405 -11.916575 0.000000 -0.000000 0.000000 -11.359550 0.255634 -28.571860 -0.794870 -1.620199 36.166949 5.701186 8.449101 -15.137868 0.000000 -0.000000 0.000000 -0.159297 1.649787 26.946065 4.291169 -6.207884 2.942285 2.949897 1.994511 -5.269343 -11.830623 53.604640 -3.366408 -9.090312 30.274597 -3.187893 -11.548729 -37.555141 -4.227576 -61.246847 -36.735223 29.222529 3.322672 -55.799757 18.589336 15.228208 -19.186375 -11.630886 21.585030 15.162440 7.870262 48.721342 14.547120 12.641302 -108.645632 66.897291 -99.488975 -28.655391 6.688603 -59.225703 
-0.083731 0.875436 0.945956 -13.449482 0.006035 92.770139 11.300459 2.423521 -22.932405 -3.788856 1.057761 28.105764 -3.971438 -0.358501 -11.888541 0.000000 -0.000000 0.000000 -11.205794 0.426731 -28.861720 -0.529727 -1.086776 36.368314 5.937462 8.225565 -15.178875 0.000000 -0.000000 0.000000 -0.573190 1.596207 27.051085 4.340589 -6.502171 2.736307 3.035903 2.059033 -4.829019 -11.913270 54.069532 -2.746637 -9.162382 30.421880 -3.872311 -8.973523 -38.945109 -6.107612 -59.598084 -40.209083 29.490441 5.063602 -58.725740 15.332957 16.483309 -18.455101 -13.340985 19.593445 15.206795 6.616915 44.046658 15.254868 11.350728 -118.796706 64.603147 -107.586852 -28.966325 7.210167 -56.463011 
-0.087356 0.875991 0.945459 -13.231272 -0.124952 92.750895 11.403507 2.314900 -22.948133 -3.924619 0.774073 28.000436 -4.080177 -0.081643 -11.719161 0.000000 -0.000000 0.000000 -11.156788 0.286150 -29.088505 -0.135187 -0.691134 36.775941 6.130253 7.701308 -15.258561 0.000000 -0.000000 0.000000 -0.591246 1.315613 27.004772 4.125461 -6.948244 2.609352 2.944817 1.950425 -4.370716 -12.256229 53.845266 -2.363932 -9.209133 30.890509 -4.847756 -6.940146 -40.252096 -7.968221 -58.612119 -43.205458 30.023859 7.467837 -60.274500 11.367932 17.808177 -17.505167 -14.745446 17.159305 15.236157 5.369974 38.541818 15.476582 9.569497 -125.449909 62.385825 -113.428124 -28.641490 7.047067 -54.523487 
-0.093445 0.876514 0.944846 -12.803772 -0.314616 92.674541 11.650488 2.318797 -22.800625 -4.184347 0.464779 27.678051 -4.432921 -0.028969 -11.390566 0.000000 -0.000000 0.000000 -11.008904 0.283958 -29.283631 0.131749 -0.371371 37.409919 6.194354 7.012257 -15.458081 0.000000 -0.000000 0.000000 -0.638399 0.942753 26.919327 3.721119 -7.236911 2.496338 2.854005 1.771267 -3.925248 -12.658234 53.263819 -1.895541 -9.343100 31.560525 -6.060471 -5.376541 -41.288062 -9.415129 -58.719545 -45.712027 30.927671 10.531447 -60.899405 6.707456 19.108141 -16.369651 -16.072629 14.386716 14.966769 4.159097 32.688323 15.312809 7.557061 -129.855176 60.935801 -117.739336 -28.105499 6.477031 -53.184321 
-0.101281 0.876820 0.944353 -12.132480 -0.522692 92.486052 11.966555 2.365691 -22.517439 -4.523981 0.013201 27.321759 -4.915837 -0.103913 -11.042090 0.000000 -0.000000 0.000000 -10.724111 0.328152 -29.317674 0.350921 0.014535 38.178772 6.141004 6.024823 -15.822408 0.000000 -0.000000 0.000000 -0.598743 0.377792 26.910679 3.188522 -7.373659 2.314104 2.793551 1.450978 -3.519130 -13.210248 52.305120 -1.360385 -9.488486 32.653061 -7.287063 -4.596432 -42.036146 -10.347759 -59.584932 -47.628358 32.124972 13.280130 -61.166468 2.160463 20.879998 -15.227097 -17.930027 11.388627 14.586231 3.161736 26.581329 14.620426 5.615831 -133.411477 60.153128 -121.931881 -28.240263 5.412048 -52.667002 
-0.109906 0.877257 0.943477 -11.351361 -0.766815 92.285471 12.275980 2.443302 -22.314638 -4.900744 -0.514440 27.105250 -5.355305 -0.210587 -10.758556 0.000000 -0.000000 0.000000 -10.428128 0.373216 -29.391225 0.590794 0.366375 39.134826 5.993181 4.861453 -16.364348 0.000000 -0.000000 0.000000 -0.449062 -0.304743 26.810323 2.537055 -7.481229 2.114862 2.644119 1.134595 -3.090094 -13.653754 51.087127 -0.720952 -9.684905 34.011418 -8.559824 -4.350690 -42.714239 -10.895172 -60.722918 -49.006471 33.573488 15.534911 -61.279425 -1.944744 23.184712 -14.143568 -19.699616 8.337220 14.176203 2.318223 20.529107 13.320012 4.006934 -136.685529 59.714701 -126.549627 -28.440266 3.980937 -53.325901 
